<svg width="13" height="23" viewBox="0 0 13 23" fill="none" xmlns="http://www.w3.org/2000/svg">
<path d="M0.0478102 12.3523L12 10.9998" stroke="#FBCDB3"/>
<line x1="1.46724" y1="0.822002" x2="9.46724" y2="21.822" stroke="#FBCDB3"/>
<path d="M10.072 12.272C10.072 13.1147 9.992 13.8933 9.832 14.608C9.672 15.3227 9.42133 15.9467 9.08 16.48C8.74933 17.0133 8.328 17.4293 7.816 17.728C7.304 18.016 6.69067 18.16 5.976 18.16C5.24 18.16 4.61067 18.0107 4.088 17.712C3.576 17.4133 3.14933 16.9973 2.808 16.464C2.47733 15.9307 2.232 15.3067 2.072 14.592C1.92267 13.8667 1.848 13.088 1.848 12.256C1.848 10.9973 1.99733 9.936 2.296 9.072C2.60533 8.19733 3.064 7.536 3.672 7.088C4.29067 6.64 5.05867 6.416 5.976 6.416C6.92533 6.416 7.69867 6.672 8.296 7.184C8.904 7.696 9.352 8.39467 9.64 9.28C9.928 10.1547 10.072 11.152 10.072 12.272ZM3.288 12.272C3.288 13.2747 3.384 14.1227 3.576 14.816C3.77867 15.4987 4.07733 16.0213 4.472 16.384C4.86667 16.7467 5.36267 16.928 5.96 16.928C6.55733 16.928 7.048 16.752 7.432 16.4C7.82667 16.048 8.12 15.5253 8.312 14.832C8.51467 14.1387 8.616 13.2853 8.616 12.272C8.616 10.7573 8.39733 9.61067 7.96 8.832C7.53333 8.04267 6.872 7.648 5.976 7.648C5.368 7.648 4.86133 7.824 4.456 8.176C4.06133 8.528 3.768 9.05067 3.576 9.744C3.384 10.4267 3.288 11.2693 3.288 12.272Z" fill="#EE384B"/>
</svg>
