<svg width="104" height="41" viewBox="0 0 104 41" fill="none" xmlns="http://www.w3.org/2000/svg">
<path fill-rule="evenodd" clip-rule="evenodd" d="M3 24.0484V32.2184H3.52V26.0984H5.22C5.91333 26.0984 6.52 26.0251 7.04 25.8784C7.57333 25.7184 8.01333 25.4718 8.36 25.1384C8.72 24.7918 8.98667 24.3451 9.16 23.7984C9.17543 23.7532 9.19023 23.7073 9.20438 23.6606L8.62575 23.6968C8.58233 23.8171 8.53374 23.9309 8.48 24.0384C8.21333 24.5984 7.81333 24.9984 7.28 25.2384C6.74667 25.4784 6.08667 25.5984 5.3 25.5984H3.52V24.0159L3 24.0484ZM11.4487 23.5204C11.4061 24.0047 11.3848 24.5174 11.3848 25.0584C11.3848 26.0184 11.4648 26.9451 11.6248 27.8384C11.7982 28.7184 12.0648 29.5051 12.4248 30.1984C12.7982 30.8784 13.2848 31.4184 13.8848 31.8184C14.4848 32.2184 15.2248 32.4184 16.1048 32.4184C16.9715 32.4184 17.7048 32.2251 18.3048 31.8384C18.9048 31.4518 19.3848 30.9184 19.7448 30.2384C20.1182 29.5584 20.3848 28.7784 20.5448 27.8984C20.7048 27.0051 20.7848 26.0584 20.7848 25.0584C20.7848 24.3057 20.7401 23.6014 20.6507 22.9452L20.1412 22.9771C20.2236 23.6106 20.2648 24.3044 20.2648 25.0584C20.2648 26.4984 20.1115 27.7318 19.8048 28.7584C19.5115 29.7851 19.0582 30.5718 18.4448 31.1184C17.8315 31.6518 17.0515 31.9184 16.1048 31.9184C15.1848 31.9184 14.4115 31.6451 13.7848 31.0984C13.1582 30.5384 12.6848 29.7451 12.3648 28.7184C12.0582 27.6784 11.9048 26.4584 11.9048 25.0584C11.9048 24.504 11.9284 23.9803 11.9756 23.4874L11.4487 23.5204ZM23.1996 22.7859C23.2012 22.7901 23.2029 22.7943 23.2045 22.7984C23.3779 23.1984 23.6045 23.5384 23.8845 23.8184C24.1779 24.0984 24.5179 24.3451 24.9045 24.5584C25.3045 24.7584 25.7179 24.9584 26.1445 25.1584C26.8112 25.4384 27.3645 25.7184 27.8045 25.9984C28.2579 26.2651 28.5979 26.5984 28.8245 26.9984C29.0512 27.3851 29.1645 27.8984 29.1645 28.5384C29.1645 29.2451 29.0312 29.8518 28.7645 30.3584C28.4979 30.8518 28.1179 31.2318 27.6245 31.4984C27.1312 31.7651 26.5379 31.8984 25.8445 31.8984C25.2979 31.8984 24.7579 31.8451 24.2245 31.7384C23.7045 31.6184 23.2445 31.4784 22.8445 31.3184V31.8984C23.1245 31.9918 23.4245 32.0851 23.7445 32.1784C24.0645 32.2584 24.3979 32.3184 24.7445 32.3584C25.1045 32.3984 25.4645 32.4184 25.8245 32.4184C26.6112 32.4184 27.2912 32.2718 27.8645 31.9784C28.4512 31.6851 28.9045 31.2518 29.2245 30.6784C29.5445 30.1051 29.7045 29.3984 29.7045 28.5584C29.7045 27.7851 29.5712 27.1718 29.3045 26.7184C29.0379 26.2651 28.6579 25.8918 28.1645 25.5984C27.6712 25.3051 27.0845 25.0051 26.4045 24.6984C25.8845 24.4584 25.4045 24.2118 24.9645 23.9584C24.5245 23.6918 24.1712 23.3518 23.9045 22.9384C23.8655 22.8779 23.8293 22.8146 23.796 22.7487L23.1996 22.7859ZM34.2159 22.0974V32.2184H34.7359V22.0649L34.2159 22.0974ZM40.0703 21.7315V32.2184H40.5903V21.699L40.0703 21.7315ZM41.543 21.6395L45.0903 32.2184H45.7503L49.4693 21.1441L48.9036 21.1794L45.4503 31.4784H45.3903L42.08 21.6059L41.543 21.6395ZM50.7903 21.0615L50.2703 21.094V32.2184H50.7903V21.0615ZM99.894 17.9925L100.712 17.9414V32.2184H100.192V20.5584V20.2184V19.6784C100.206 19.4384 100.212 19.1518 100.212 18.8184H100.172L95.6722 32.2184H95.0122L90.5122 18.7984H90.4722C90.4855 19.1318 90.4922 19.4118 90.4922 19.6384C90.5055 19.8651 90.5122 20.0451 90.5122 20.1784V20.5384V32.2184H89.9922V18.6114L90.9772 18.5498L95.3122 31.4784H95.3722L99.894 17.9925ZM81.2203 19.1596L81.9533 19.1138C81.8036 19.2675 81.6728 19.4424 81.5608 19.6384C81.2941 20.0918 81.1608 20.6518 81.1608 21.3184C81.1608 21.9851 81.2941 22.5251 81.5608 22.9384C81.8274 23.3518 82.1808 23.6918 82.6208 23.9584C83.0608 24.2118 83.5408 24.4584 84.0608 24.6984C84.7408 25.0051 85.3274 25.3051 85.8208 25.5984C86.3141 25.8918 86.6941 26.2651 86.9608 26.7184C87.2274 27.1718 87.3608 27.7851 87.3608 28.5584C87.3608 29.3984 87.2008 30.1051 86.8808 30.6784C86.5608 31.2518 86.1074 31.6851 85.5208 31.9784C84.9474 32.2718 84.2674 32.4184 83.4808 32.4184C83.1208 32.4184 82.7608 32.3984 82.4008 32.3584C82.0541 32.3184 81.7208 32.2584 81.4008 32.1784C81.0808 32.0851 80.7808 31.9918 80.5008 31.8984V31.3184C80.9008 31.4784 81.3608 31.6184 81.8808 31.7384C82.4141 31.8451 82.9541 31.8984 83.5008 31.8984C84.1941 31.8984 84.7874 31.7651 85.2808 31.4984C85.7741 31.2318 86.1541 30.8518 86.4208 30.3584C86.6874 29.8518 86.8208 29.2451 86.8208 28.5384C86.8208 27.8984 86.7075 27.3851 86.4808 26.9984C86.2541 26.5984 85.9141 26.2651 85.4608 25.9984C85.0208 25.7184 84.4674 25.4384 83.8008 25.1584C83.3741 24.9584 82.9608 24.7584 82.5608 24.5584C82.1741 24.3451 81.8341 24.0984 81.5408 23.8184C81.2608 23.5384 81.0341 23.1984 80.8608 22.7984C80.7008 22.3984 80.6208 21.9051 80.6208 21.3184C80.6208 20.5318 80.7808 19.8718 81.1008 19.3384C81.1391 19.2771 81.179 19.2175 81.2203 19.1596ZM76.9552 19.4262L77.4752 19.3937V31.7784L78.6952 31.8384V32.2184H75.7152V31.8384L76.9552 31.7784V19.4262ZM66.8281 20.0592V32.2184H70.0681C70.8548 32.2184 71.5348 32.0651 72.1081 31.7584C72.6948 31.4518 73.1415 31.0051 73.4481 30.4184C73.7681 29.8318 73.9281 29.1051 73.9281 28.2384C73.9281 27.6118 73.8348 27.0584 73.6481 26.5784C73.4748 26.0984 73.2015 25.6984 72.8281 25.3784C72.4548 25.0584 71.9548 24.8318 71.3281 24.6984V24.6784C71.8215 24.5851 72.2348 24.3851 72.5681 24.0784C72.9148 23.7584 73.1748 23.3584 73.3481 22.8784C73.5215 22.3984 73.6081 21.8584 73.6081 21.2584C73.6081 20.6373 73.5125 20.1023 73.3212 19.6533L72.7454 19.6893C72.9606 20.1058 73.0681 20.6355 73.0681 21.2784C73.0681 22.3451 72.7948 23.1451 72.2481 23.6784C71.7148 24.1984 70.9215 24.4584 69.8681 24.4584H67.3481V20.0267L66.8281 20.0592ZM67.3481 31.7184V24.9584H69.8881C70.5948 24.9584 71.2081 25.0584 71.7281 25.2584C72.2481 25.4584 72.6548 25.7984 72.9481 26.2784C73.2415 26.7584 73.3881 27.4118 73.3881 28.2384C73.3881 29.4251 73.0815 30.3051 72.4681 30.8784C71.8681 31.4384 71.0481 31.7184 70.0081 31.7184H67.3481Z" fill="black"/>
<path fill-rule="evenodd" clip-rule="evenodd" d="M6.4 18.08C5.70667 17.4933 4.67333 17.2 3.3 17.2H1V24.31L1.52 24.2775V17.7H3.28C4.50667 17.7 5.41333 17.96 6 18.48C6.6 18.9867 6.9 19.86 6.9 21.1C6.9 22.0067 6.76 22.74 6.48 23.3C6.35166 23.5695 6.19244 23.802 6.00234 23.9974L6.7368 23.9515C6.91283 23.6918 7.0539 23.3946 7.16 23.06C7.34667 22.5133 7.44 21.86 7.44 21.1C7.44 19.6733 7.09333 18.6667 6.4 18.08ZM18.7496 23.2006C18.6846 22.2033 18.5297 21.3031 18.2848 20.5C17.9648 19.3933 17.4648 18.5333 16.7848 17.92C16.1048 17.3067 15.2248 17 14.1448 17C13.1182 17 12.2515 17.28 11.5448 17.84C10.8382 18.4 10.2982 19.2267 9.92484 20.32C9.60634 21.2873 9.42873 22.4425 9.39202 23.7855L9.9134 23.7529C9.94952 22.5794 10.1 21.5551 10.3648 20.68C10.6715 19.6533 11.1382 18.8667 11.7648 18.32C12.3915 17.7733 13.1848 17.5 14.1448 17.5C15.5048 17.5 16.5315 18.0933 17.2248 19.28C17.7985 20.2508 18.1348 21.5684 18.2339 23.2329L18.7496 23.2006ZM22.5923 22.9605L21.8159 23.009C21.5673 22.7431 21.3635 22.4268 21.2045 22.06C21.0445 21.66 20.9645 21.1667 20.9645 20.58C20.9645 19.7933 21.1245 19.1333 21.4445 18.6C21.7779 18.0667 22.2245 17.6667 22.7845 17.4C23.3579 17.1333 24.0112 17 24.7445 17C25.2512 17 25.7379 17.06 26.2045 17.18C26.6845 17.2867 27.1045 17.4333 27.4645 17.62L27.2445 18.06C26.7912 17.8467 26.3445 17.7 25.9045 17.62C25.4645 17.54 25.0712 17.5 24.7245 17.5C24.0712 17.5 23.5045 17.62 23.0245 17.86C22.5445 18.0867 22.1712 18.4333 21.9045 18.9C21.6379 19.3533 21.5045 19.9133 21.5045 20.58C21.5045 21.2467 21.6379 21.7867 21.9045 22.2C22.0913 22.4895 22.3205 22.743 22.5923 22.9605ZM32.7359 22.3265L32.2159 22.359V17.7H28.7159V17.2H36.2359V17.7H32.7359V22.3265ZM38.5903 21.9606L38.0703 21.9931V17.2H38.8503L40.4085 21.847L39.8714 21.8805L38.5903 18.06H38.5503C38.5636 18.3933 38.5703 18.6733 38.5703 18.9C38.5836 19.1267 38.5903 19.3067 38.5903 19.44V19.8V21.9606ZM48.2703 21.3556V19.82V19.48V18.94C48.2836 18.7 48.2903 18.4133 48.2903 18.08H48.2503L47.1263 21.4271L46.5611 21.4624L47.9903 17.2H48.7903V21.3231L48.2703 21.3556ZM71.2239 19.921C71.1695 19.4461 71.0471 19.0324 70.8566 18.68C70.5899 18.1867 70.1832 17.82 69.6366 17.58C69.1032 17.3267 68.4099 17.2 67.5566 17.2H64.4766V20.3427L64.9966 20.3102V17.7H67.3366C68.5766 17.7 69.4499 17.9267 69.9566 18.38C70.357 18.7383 70.5993 19.2633 70.6832 19.9548L71.2239 19.921ZM75.1236 19.6773L74.6036 19.7098V17.66L73.3636 17.58V17.2H76.3436V17.58L75.1236 17.66V19.6773ZM78.9712 19.4368L78.3947 19.4728C78.4746 19.1516 78.5928 18.8607 78.7492 18.6C79.0826 18.0667 79.5292 17.6667 80.0892 17.4C80.6626 17.1333 81.3159 17 82.0492 17C82.5559 17 83.0425 17.06 83.5092 17.18C83.9892 17.2867 84.4092 17.4333 84.7692 17.62L84.5492 18.06C84.0959 17.8467 83.6492 17.7 83.2092 17.62C82.7692 17.54 82.3759 17.5 82.0292 17.5C81.3759 17.5 80.8092 17.62 80.3292 17.86C79.8492 18.0867 79.4759 18.4333 79.2092 18.9C79.1123 19.0648 79.0329 19.2438 78.9712 19.4368ZM88.1406 18.8637L87.6406 18.895V17.2H88.4206L88.9613 18.8124L88.4242 18.846L88.1606 18.06H88.1206C88.1333 18.3758 88.1399 18.6437 88.1406 18.8637ZM97.86 18.2563C97.8604 18.199 97.8606 18.1403 97.8606 18.08H97.8206L97.7593 18.2625L97.1925 18.298L97.5606 17.2H98.3606V18.225L97.86 18.2563Z" fill="black"/>
<path d="M0.0501545 24.0002L103.074 18.0015" stroke="#FBCDB3"/>
<path d="M64.12 24.08C64.12 25.4 64.01 26.57 63.79 27.59C63.59 28.61 63.27 29.47 62.83 30.17C62.39 30.87 61.84 31.4 61.18 31.76C60.52 32.12 59.75 32.3 58.87 32.3C57.97 32.3 57.18 32.12 56.5 31.76C55.84 31.4 55.28 30.87 54.82 30.17C54.38 29.45 54.05 28.58 53.83 27.56C53.61 26.54 53.5 25.37 53.5 24.05C53.5 22.29 53.7 20.81 54.1 19.61C54.5 18.39 55.1 17.47 55.9 16.85C56.7 16.21 57.69 15.89 58.87 15.89C60.15 15.89 61.17 16.23 61.93 16.91C62.71 17.59 63.27 18.54 63.61 19.76C63.95 20.98 64.12 22.42 64.12 24.08ZM54.28 24.05C54.28 25.63 54.44 26.98 54.76 28.1C55.1 29.22 55.6 30.08 56.26 30.68C56.94 31.26 57.8 31.55 58.84 31.55C59.88 31.55 60.73 31.27 61.39 30.71C62.05 30.13 62.54 29.28 62.86 28.16C63.18 27.04 63.34 25.67 63.34 24.05C63.34 22.57 63.19 21.28 62.89 20.18C62.61 19.06 62.14 18.19 61.48 17.57C60.84 16.95 59.97 16.64 58.87 16.64C57.31 16.64 56.15 17.28 55.39 18.56C54.65 19.84 54.28 21.67 54.28 24.05Z" fill="#EE384B"/>
<line x1="53.4605" y1="11.8052" x2="64.4605" y2="37.8052" stroke="#FBCDB3"/>
</svg>
